# xmcd
#
# Track frame offsets:
#	150
#	16049
#	31133
#	44541
#	58034
#	76388
#	90889
#	106388
#	120320
#	134971
#	149165
#	165178
#	179730
#	199163
#	212398
#
# Disc length: 3061 seconds
#
# Revision: 0
# Processed by: cddbd v1.5.2PL0 Copyright (c) Steve Scherf et al.
# Submitted via: EasyCDDAExtractor 12.0.1.1
#
DISCID=ca0bf30f
DTITLE=Various Artist - Full Speed 2009
DYEAR=2009
DGENRE=Dance
TTITLE0=SHARAM VS KID KUDI FEAT PATSY CLINE - SHE CAME ALONG
TTITLE1=CONSOUL TRAININ' FEAT JOAN KOLOVA - NOTHING COMPARES TO YOU (LAST MIN 
TTITLE1=RADIO EDIT)
TTITLE2=COSMOSOUND FEAT NEKK - I'D LOVE TO CHANGE THE WORLD
TTITLE3=PLAYMEN FEAT RECKLESS - TOGETHER FOREVER
TTITLE4=EDWARD MAYA FEAT VIKA JIGULINA - STEREO LOVE
TTITLE5=RESIDENCE DEEJAYS - SEXY LOVE
TTITLE6=DEEPSIDE DEEJAYS - BEAUTIFUL DAYS
TTITLE7=DAVID DEEJAY FEAT DONY - NASTY DREAM
TTITLE8=JAVI MULA - COME ON
TTITLE9=IN GRID - LE DRAGUEUR
TTITLE10=R.I.O. - AFTER THE LOVE
TTITLE11=CIDINHO and DOCA - RAP DAS ARMAS (FRAPPE and BEASY RMX)
TTITLE12=RICHARD DURAND - ALWAYS THE SUN
TTITLE13=ARMIN VAN BUUREN FEAT SHARON DEN ADEL - IN AND OUT OF LOVE
TTITLE14=TANTO PROJECT - DANCING IN THE DARK
EXTD=
EXTT0=
EXTT1=
EXTT2=
EXTT3=
EXTT4=
EXTT5=
EXTT6=
EXTT7=
EXTT8=
EXTT9=
EXTT10=
EXTT11=
EXTT12=
EXTT13=
EXTT14=
PLAYORDER=
